<?xml version="1.0" encoding="UTF-8" standalone="no"?>
<svg
  version="1.1"
  id="Layer_1"
  x="0px"
  y="0px"
  viewBox="0 0 108.54513 107.73554"
  xml:space="preserve"
  sodipodi:docname="ExternalLinkIcon.svg"
  width="108.54513"
  height="107.73553"
  inkscape:version="1.1.2 (0a00cf5339, 2022-02-04)"
  xmlns:inkscape="http://www.inkscape.org/namespaces/inkscape"
  xmlns:sodipodi="http://sodipodi.sourceforge.net/DTD/sodipodi-0.dtd"
  xmlns="http://www.w3.org/2000/svg"
><defs
     id="defs9" /><sodipodi:namedview
     id="namedview7"
     pagecolor="#ffffff"
     bordercolor="#000000"
     borderopacity="0.25"
     inkscape:pageshadow="2"
     inkscape:pageopacity="0.0"
     inkscape:pagecheckerboard="0"
     showgrid="false"
     inkscape:zoom="3.5522462"
     inkscape:cx="5.4894844"
     inkscape:cy="87.972507"
     inkscape:window-width="1974"
     inkscape:window-height="1088"
     inkscape:window-x="1994"
     inkscape:window-y="27"
     inkscape:window-maximized="1"
     inkscape:current-layer="g4"
     fit-margin-top="0"
     fit-margin-left="0"
     fit-margin-right="0"
     fit-margin-bottom="0" /><g
     id="g4"
     transform="matrix(0.8,0,0,0.8,0,9.4315321)"><path
       d="M 123.79833,8.2994311 55.65657,76.340712 c -2.601543,2.611662 -6.87134,2.646177 -9.519547,0.08054 -2.648208,-2.565642 -2.683206,-6.776516 -0.08166,-9.388179 L 111.57225,1.6034511 H 84.296875 c -3.721489,0 -6.743012,-2.9798261 -6.743012,-6.6499594 0,-3.6701334 3.021523,-6.6499597 6.743012,-6.6499597 h 30.915195 c 5.97305,0 13.67269,-1.000945 18.25747,3.5665875 2.89319,2.8877851 2.25156,25.9095305 1.87824,39.2439645 -0.0933,3.451536 -0.17499,6.086209 -0.17499,7.973049 0,3.670133 -3.02152,6.649959 -6.74301,6.649959 -3.72149,0 -6.74302,-2.979826 -6.74302,-6.649959 0,-0.356659 0.0933,-3.8197 0.22166,-8.329707 0.18666,-6.949093 1.31827,-16.153189 1.88991,-22.4579949 z"
       id="path828"
       style="stroke-width:1.15853" /><path
       d="m 110.6,72.58 c 0,-3.19 2.59,-5.78 5.78,-5.78 3.19,0 5.78,2.59 5.78,5.78 v 33.19 c 0,4.71 -1.92,8.99 -5.02,12.09 -3.1,3.1 -7.38,5.02 -12.09,5.02 H 17.11 c -4.71,0 -8.99,-1.92 -12.09,-5.02 C 1.92,114.76 0,110.48 0,105.77 V 17.19 C 0,12.48 1.92,8.2 5.02,5.1 8.12,2 12.4,0.08 17.11,0.08 h 32.98 c 3.19,0 5.78,2.59 5.78,5.78 0,3.19 -2.59,5.78 -5.78,5.78 H 17.11 c -1.52,0 -2.9,0.63 -3.91,1.63 -1.01,1.01 -1.63,2.39 -1.63,3.91 v 88.58 c 0,1.52 0.63,2.9 1.63,3.91 1.01,1.01 2.39,1.63 3.91,1.63 h 87.95 c 1.52,0 2.9,-0.63 3.91,-1.63 1.01,-1 1.63,-2.39 1.63,-3.91 z"
       id="path2" /></g></svg>
