<?xml version="1.0" encoding="UTF-8" standalone="no"?>
<!-- Uploaded to: SVG Repo, www.svgrepo.com, Generator: SVG Repo Mixer Tools -->

<svg
  width="633.32056"
  height="700.63611"
  viewBox="0 0 37.999233 42.038167"
  fill="none"
  version="1.1"
  id="svg12"
  sodipodi:docname="GithubIcon.svg"
  inkscape:version="1.1.2 (0a00cf5339, 2022-02-04)"
  xmlns:inkscape="http://www.inkscape.org/namespaces/inkscape"
  xmlns:sodipodi="http://sodipodi.sourceforge.net/DTD/sodipodi-0.dtd"
  xmlns="http://www.w3.org/2000/svg"
>
  <defs
     id="defs16" />
  <sodipodi:namedview
     id="namedview14"
     pagecolor="#ffffff"
     bordercolor="#000000"
     borderopacity="0.25"
     inkscape:pageshadow="2"
     inkscape:pageopacity="0.0"
     inkscape:pagecheckerboard="0"
     showgrid="false"
     inkscape:zoom="1.09125"
     inkscape:cx="318.44215"
     inkscape:cy="362.42841"
     inkscape:window-width="1974"
     inkscape:window-height="1088"
     inkscape:window-x="1994"
     inkscape:window-y="27"
     inkscape:window-maximized="1"
     inkscape:current-layer="g1973"
     fit-margin-top="0"
     fit-margin-left="0"
     fit-margin-right="0"
     fit-margin-bottom="0" />
  <g
     id="g1973"
     style="fill:#000000;fill-opacity:1;stroke:none;stroke-width:1.00002;stroke-miterlimit:4;stroke-dasharray:none"
     transform="translate(-4.0007677,-2.9735542)">
    <g
       id="path4"
       style="fill:#000000;fill-opacity:1;stroke:none;stroke-width:1.00002;stroke-miterlimit:4;stroke-dasharray:none">
      <path
         style="color:#000000;fill:#000000;fill-opacity:1;stroke:none;stroke-width:1.00002;stroke-linecap:round;stroke-miterlimit:4;stroke-dasharray:none"
         d="M 37.453125,2.9746094 C 36.96313,2.9617622 36.496025,3.0676108 36.175781,3.2167969 34.898194,3.8119634 33.554142,4.631953 32.375,5.2089844 31.195858,5.7860158 30.168111,5.8356755 30.439453,5.9160156 28.43331,5.322007 26.2635,5 24,5 22.034001,5 20.13829,5.2442055 18.359375,5.6972656 17.909986,5.8117124 17.306285,5.672332 16.332031,5.1542969 15.357778,4.6362618 14.20874,3.8014193 12.789063,3.1914063 12.084684,2.8887513 10.929694,2.8883046 10.181641,3.3964844 9.4335871,3.9046642 9.1658028,4.5374677 8.984375,5.0644531 8.6215194,6.1184239 8.5877501,7.1286142 8.5566406,8.1777344 c -0.031109,1.0491201 -0.01035,2.0999506 -0.023437,2.8828126 -0.00654,0.391431 -0.023175,0.720186 -0.042969,0.886719 C 8.4704405,12.113798 8.24948,12.154316 8.7460938,11.539063 7.0402077,13.652554 6,16.235051 6,19 c 0,4.034284 2.1167937,7.912279 5.486328,10.439453 2.244583,1.683321 4.972053,2.699988 7.921875,3.195313 a 2,2 0 0 0 2.304688,-1.640625 2,2 0 0 0 -1.640625,-2.304688 C 17.609893,28.275979 15.499732,27.449911 13.886719,26.240234 11.465379,24.424213 10,21.593109 10,19 c 0,-1.777246 0.642444,-3.441514 1.859375,-4.949219 0.664364,-0.823078 0.551514,-1.211733 0.601563,-1.632812 0.05005,-0.421079 0.06472,-0.839649 0.07226,-1.291016 0.01509,-0.902735 -0.0055,-1.9224057 0.02149,-2.8320311 0.0089,-0.299533 0.04621,-0.3717411 0.07031,-0.6347657 0.596091,0.3515655 1.094944,0.6355398 1.828125,1.0253907 1.300269,0.6913861 2.993969,1.3702411 4.892578,0.8867187 C 20.797384,9.2025466 22.364402,9 24,9 c 1.883096,0 3.674634,0.2693029 5.304687,0.7519531 1.969541,0.5831499 3.410495,-0.2554789 4.828125,-0.9492187 0.640961,-0.313664 1.099564,-0.5659545 1.6875,-0.8867188 -0.113201,0.8874947 -0.269336,1.874872 -0.355468,2.7949224 -0.04439,0.474185 -0.07483,0.92611 -0.04687,1.408203 0.02795,0.482092 -0.01289,1.041582 0.636718,1.824218 C 37.328094,15.47749 38,17.180894 38,19 c 0,2.71827 -1.209783,5.465463 -3.576172,7.240234 -1.385627,1.039201 -3.29757,1.822419 -5.486328,2.277344 a 2,2 0 0 0 -1.550781,2.365234 2,2 0 0 0 2.365234,1.552735 C 32.37059,31.891273 34.81885,30.94345 36.824219,29.439453 40.248824,26.871029 42,22.909123 42,19 c 0,-2.640235 -1.016817,-5.075422 -2.587891,-7.134766 -0.0064,-0.133633 0.0014,-0.420875 0.03516,-0.78125 0.06933,-0.74053 0.228013,-1.7558285 0.353515,-2.7578121 C 39.926286,7.3241882 40.06202,6.3960742 39.898444,5.3378906 39.816648,4.8087989 39.696372,4.0805791 38.869141,3.4394531 38.455525,3.1188902 37.94312,2.9874565 37.453125,2.9746094 Z m 1.677734,8.4140626 h 0.002 c 0.05489,0.06613 -0.0027,0.0095 0.03516,0.0625 -0.01556,-0.01895 -0.02144,-0.04362 -0.03711,-0.0625 z"
         id="path1737" />
    </g>
    <path
       style="color:#000000;fill:#000000;fill-opacity:1;stroke:none;stroke-width:1.00002;stroke-linecap:round;stroke-miterlimit:4;stroke-dasharray:none"
       d="m 19.644531,28.664062 a 2,2 0 0 0 -1.384765,0.652344 c -1.359058,1.495961 -2.257813,3.158274 -2.257813,4.978516 v 8.716797 a 2,2 0 0 0 2,2 2,2 0 0 0 2,-2 v -8.716797 c 0,-0.472956 0.26081,-1.232673 1.21875,-2.28711 a 2,2 0 0 0 -0.134766,-2.826171 2,2 0 0 0 -1.441406,-0.517579 z"
       id="path6" />
    <path
       style="color:#000000;fill:#000000;fill-opacity:1;stroke:none;stroke-width:1.00002;stroke-linecap:round;stroke-miterlimit:4;stroke-dasharray:none"
       d="m 29.611328,28.494141 a 2,2 0 0 0 -1.478516,0.392578 2,2 0 0 0 -0.378906,2.802734 c 0.942795,1.237364 1.236328,2.159818 1.236328,2.667969 v 8.654297 a 2,2 0 0 0 2,2 2,2 0 0 0 2,-2 v -8.654297 c 0,-1.784847 -0.801884,-3.449517 -2.054687,-5.09375 a 2,2 0 0 0 -1.324219,-0.769531 z"
       id="path8" />
    <path
       style="color:#000000;fill:#000000;fill-opacity:1;stroke:none;stroke-width:1.00002;stroke-linecap:round;stroke-miterlimit:4;stroke-dasharray:none"
       d="m 6.2421875,29.230469 a 2,2 0 0 0 -2.2265625,1.742187 2,2 0 0 0 1.7421875,2.228516 c 0.4175441,0.05105 0.3902606,0.05844 0.53125,0.291015 0.3269847,0.53933 1.1595663,1.929706 2.3574219,3.244141 1.1978555,1.314436 2.8358876,2.78125 5.1777346,2.78125 h 4.177734 a 2,2 0 0 0 2,-2 2,2 0 0 0 -2,-2 h -4.177734 c -0.409051,0 -1.356658,-0.526472 -2.220703,-1.474609 -0.864045,-0.948137 -1.567874,-2.089431 -1.8925785,-2.625 -0.7279298,-1.200818 -2.0885559,-2.018751 -3.46875,-2.1875 z"
       id="path10" />
  </g>
</svg>
